<?xml version="1.0" standalone="no"?>
<!DOCTYPE svg PUBLIC "-//W3C//DTD SVG 20010904//EN"
 "http://www.w3.org/TR/2001/REC-SVG-20010904/DTD/svg10.dtd">
<svg version="1.0" xmlns="http://www.w3.org/2000/svg"
 width="200.000000pt" height="150.000000pt" viewBox="0 0 200.000000 150.000000"
 preserveAspectRatio="xMidYMid meet">
<metadata>
Created by potrace 1.10, written by Peter Selinger 2001-2011
</metadata>
<g transform="translate(0.000000,150.000000) scale(0.100000,-0.100000)"
fill="#b30047" stroke="none">
<path d="M1020 802 c0 -133 4 -192 12 -200 7 -7 33 -12 59 -12 46 0 48 1 45
28 -2 15 -10 28 -20 30 -14 3 -16 24 -16 173 l0 169 -40 0 -40 0 0 -188z m53
76 c4 -46 7 -117 7 -158 0 -45 5 -81 12 -88 16 -16 4 -25 -21 -17 -20 6 -21
13 -21 176 0 178 13 225 23 87z"/>
<path d="M1150 802 c0 -133 4 -192 12 -200 7 -7 34 -12 60 -12 54 0 63 15 28
50 -18 18 -20 33 -20 185 l0 165 -40 0 -40 0 0 -188z m53 76 c4 -46 7 -116 7
-157 0 -55 4 -79 17 -93 14 -16 14 -18 0 -18 -46 0 -47 3 -47 181 0 179 13
225 23 87z"/>
<path d="M800 878 c-66 -18 -100 -68 -100 -145 0 -55 24 -102 66 -130 40 -26
134 -24 171 3 83 61 82 208 -2 255 -40 23 -93 29 -135 17z m-5 -51 c-20 -16
-28 -35 -32 -69 -7 -58 0 -87 27 -116 14 -15 16 -22 7 -22 -7 0 -25 13 -40 28
-23 24 -27 37 -27 89 0 56 3 63 31 87 17 14 37 26 45 26 10 0 6 -8 -11 -23z
m141 0 c22 -19 28 -34 32 -79 5 -64 -6 -91 -51 -118 -38 -24 -61 -27 -29 -4
55 39 68 127 27 188 -28 41 -19 47 21 13z m-46 -17 c29 -29 28 -122 -1 -151
-32 -32 -70 -22 -93 24 -43 88 32 189 94 127z"/>
<path d="M1360 878 c-44 -12 -66 -32 -79 -69 l-10 -29 42 0 c34 0 44 4 52 22
12 27 40 35 60 18 19 -16 20 -61 2 -54 -23 9 -111 -16 -134 -38 -24 -23 -29
-60 -14 -101 19 -50 117 -58 153 -13 l18 21 0 -22 c0 -20 5 -23 40 -23 l40 0
0 93 c0 150 -19 188 -100 200 -19 3 -51 1 -70 -5z m121 -44 c23 -20 28 -214 5
-214 -23 0 -27 13 -28 107 -1 59 -6 96 -16 111 -13 21 -13 22 4 16 11 -4 26
-13 35 -20z m-121 7 c0 -13 -29 -35 -37 -28 -7 8 15 37 28 37 5 0 9 -4 9 -9z
m-18 -133 c-18 -18 -14 -56 8 -78 20 -20 20 -20 0 -20 -24 0 -60 34 -60 55 0
19 48 70 57 61 4 -4 1 -12 -5 -18z m98 -12 c0 -51 -59 -74 -84 -33 -9 15 -7
22 13 38 13 10 34 19 47 19 19 0 24 -5 24 -24z"/>
<path d="M400 872 c0 -4 25 -70 56 -146 67 -169 66 -194 -8 -188 -14 1 -18 -6
-18 -28 0 -29 2 -30 45 -30 72 0 94 28 170 222 36 91 65 169 65 172 0 3 -20 6
-44 6 l-45 0 -15 -55 c-9 -30 -23 -81 -33 -112 l-16 -58 -13 40 c-7 22 -23 73
-34 113 l-22 72 -44 0 c-24 0 -44 -4 -44 -8z m81 -59 c7 -21 11 -38 10 -38 -3
0 35 -101 46 -119 6 -11 17 -17 24 -14 12 5 49 89 55 125 6 39 28 83 40 83 17
0 18 4 -5 -55 -71 -191 -92 -238 -114 -262 -26 -30 -43 -30 -23 -1 9 12 16 34
16 48 0 23 -58 191 -81 232 -13 25 -11 38 5 38 8 0 20 -17 27 -37z"/>
</g>
</svg>
